<svg width="196" height="28" viewBox="0 0 196 28" fill="none" xmlns="http://www.w3.org/2000/svg">
<path d="M7.89116 2.45422V9.82815L8.79673 9.89283L8.73205 13.7092H7.17965L7.05028 11.4452H1.81091L1.68154 13.7092H0.129136L0.0644531 9.89283L0.840654 9.82815C1.22876 9.18131 1.48749 8.53448 1.68154 7.82296C1.94028 6.91739 2.00496 5.94714 2.00496 4.84752V2.45422H7.89116ZM3.88078 5.3003C3.88078 6.33524 3.75141 7.37017 3.49268 8.27574C3.36331 8.79321 3.10458 9.37537 2.91053 9.82815H5.88597V4.136H3.88078V5.3003Z" fill="#11519C"/>
<path d="M18.3059 6.85233C18.3059 9.82777 16.5594 11.5742 13.9074 11.5742C11.2553 11.5742 9.70294 9.56904 9.70294 6.9817C9.70294 4.26499 11.4494 2.2598 14.1014 2.2598C16.8181 2.2598 18.3059 4.32967 18.3059 6.85233ZM11.8375 6.9817C11.8375 8.72815 12.6784 10.0218 14.0367 10.0218C15.3951 10.0218 16.1713 8.72815 16.1713 6.9817C16.1713 5.36461 15.3951 3.94157 14.0367 3.94157C12.6137 3.87689 11.8375 5.23524 11.8375 6.9817Z" fill="#11519C"/>
<path d="M21.9274 2.45422V5.88245H25.291V2.45422H27.2962V11.4452H25.291V7.69359H21.9274V11.4452H19.9222V2.45422H21.9274Z" fill="#11519C"/>
<path d="M35.9641 11.1861C35.576 11.3802 34.7351 11.5742 33.7002 11.5742C30.5954 11.5742 28.9783 9.63372 28.9783 7.04638C28.9783 4.00625 31.1775 2.2598 33.8942 2.2598C34.9292 2.2598 35.77 2.45385 36.0935 2.6479L35.6407 4.26499C35.2526 4.07094 34.6704 3.94157 33.9589 3.94157C32.3418 3.94157 31.1128 4.91182 31.1128 6.91701C31.1128 8.72815 32.2125 9.82778 33.9589 9.82778C34.6057 9.82778 35.2526 9.69841 35.6407 9.50436L35.9641 11.1861Z" fill="#11519C"/>
<path d="M39.5861 2.45422V6.20587H39.7802L42.2382 2.45422H44.6961L41.5913 6.4646C42.7556 6.72334 43.2731 7.56422 43.6612 8.59916C43.9846 9.56942 44.2433 10.5397 44.6961 11.4452H42.4969C42.1735 10.8631 42.0441 10.1516 41.7854 9.44005C41.4619 8.40511 41.0738 7.62891 39.9742 7.62891H39.5861V11.3806H37.5809V2.45422H39.5861Z" fill="#11519C"/>
<path d="M53.8814 6.85233C53.8814 9.82777 52.135 11.5742 49.4829 11.5742C46.8309 11.5742 45.2785 9.56904 45.2785 6.9817C45.2785 4.26499 47.025 2.2598 49.677 2.2598C52.3937 2.2598 53.8814 4.32967 53.8814 6.85233ZM47.4131 6.9817C47.4131 8.72815 48.2539 10.0218 49.6123 10.0218C50.9707 10.0218 51.7469 8.72815 51.7469 6.9817C51.7469 5.36461 50.9707 3.94157 49.6123 3.94157C48.1893 3.87689 47.4131 5.23524 47.4131 6.9817Z" fill="#11519C"/>
<path d="M57.3738 2.45409V5.10612C57.3738 6.52916 57.3091 7.95219 57.2444 9.18118H57.3091C57.7619 8.14624 58.4087 6.91726 58.9262 5.947L60.8667 2.38941H62.9366V11.3804H61.0607V8.7284C61.0607 7.37004 61.0607 6.14105 61.1901 4.91207H61.1254C60.7373 6.01169 60.1552 7.17599 59.573 8.14624L57.7619 11.3804H55.4333V2.45409H57.3738ZM58.6027 0.384216C58.6027 0.901685 58.7968 1.2251 59.1849 1.2251C59.573 1.2251 59.7671 0.901685 59.7671 0.384216H61.1254C61.0607 1.54852 60.2845 2.00131 59.1202 2.00131C57.9559 2.00131 57.3091 1.48384 57.1797 0.384216H58.6027Z" fill="#11519C"/>
<path d="M72.5736 2.45422V4.136H69.1453V11.4452H67.1401V2.45422H72.5736Z" fill="#11519C"/>
<path d="M81.6949 6.85233C81.6949 9.82777 79.9484 11.5742 77.2964 11.5742C74.6444 11.5742 73.092 9.56904 73.092 6.9817C73.092 4.26499 74.8384 2.2598 77.4905 2.2598C80.2072 2.2598 81.6949 4.32967 81.6949 6.85233ZM75.2265 6.9817C75.2265 8.72815 76.0674 10.0218 77.4258 10.0218C78.7841 10.0218 79.5603 8.72815 79.5603 6.9817C79.5603 5.36461 78.7841 3.94157 77.4258 3.94157C76.0027 3.87689 75.2265 5.23524 75.2265 6.9817Z" fill="#11519C"/>
<path d="M89.9099 11.1861C89.5218 11.3802 88.6809 11.5742 87.646 11.5742C84.5412 11.5742 82.9241 9.63372 82.9241 7.04638C82.9241 4.00625 85.1233 2.2598 87.84 2.2598C88.875 2.2598 89.7158 2.45385 90.0393 2.6479L89.5865 4.26499C89.1984 4.07094 88.6162 3.94157 87.9047 3.94157C86.2876 3.94157 85.0586 4.91182 85.0586 6.91701C85.0586 8.72815 86.1582 9.82778 87.9047 9.82778C88.5515 9.82778 89.1984 9.69841 89.5865 9.50436L89.9099 11.1861Z" fill="#11519C"/>
<path d="M93.1438 2.45436L94.4375 5.68854C94.6962 6.33538 94.8903 6.85285 95.0843 7.435H95.149C95.2784 7.0469 95.4078 6.46474 95.6018 5.68854L96.5721 2.45436H98.7066L97.0248 6.91753C96.5074 8.27588 95.9252 9.63424 95.2784 10.4751C94.6962 11.1866 93.92 11.6394 92.8851 11.6394C92.4323 11.6394 92.1736 11.5747 91.9148 11.5101L92.0442 9.89297C92.2383 9.95766 92.4323 9.95766 92.691 9.95766C93.3379 9.95766 93.726 9.50487 93.92 9.11677C93.9847 8.9874 93.92 8.85804 93.8553 8.66399L90.8152 2.38968H93.1438V2.45436Z" fill="#11519C"/>
<path d="M106.21 2.45422V9.82815L107.116 9.89283L107.051 13.7092H105.499L105.37 11.4452H100.13L100.001 13.7092H98.4484L98.3837 9.89283L99.1599 9.82815C99.548 9.18131 99.8067 8.53448 100.001 7.82296C100.26 6.91739 100.324 5.94714 100.324 4.84752V2.45422H106.21ZM102.265 5.3003C102.265 6.33524 102.135 7.37017 101.877 8.27574C101.747 8.79321 101.489 9.37537 101.294 9.82815H104.27V4.136H102.265V5.3003Z" fill="#11519C"/>
<path d="M110.737 9.11663L110.09 11.4452H108.021L110.737 2.45422H113.389L116.171 11.4452H113.971L113.26 9.11663H110.737ZM113.001 7.62891L112.419 5.6884C112.29 5.17093 112.096 4.45941 111.966 3.94195C111.837 4.45941 111.708 5.17093 111.578 5.6884L111.061 7.62891H113.001Z" fill="#11519C"/>
<path d="M117.659 2.58373C118.306 2.45436 119.147 2.38968 120.376 2.38968C121.605 2.38968 122.51 2.64841 123.093 3.1012C123.675 3.55398 124.063 4.33019 124.063 5.17107C124.063 6.07664 123.804 6.78816 123.222 7.30563C122.51 7.95247 121.476 8.27588 120.311 8.27588C120.052 8.27588 119.794 8.27588 119.6 8.2112V11.4454H117.595V2.58373H117.659ZM119.664 6.65879C119.858 6.72348 120.052 6.72348 120.376 6.72348C121.476 6.72348 122.122 6.20601 122.122 5.30044C122.122 4.45955 121.54 4.00677 120.505 4.00677C120.117 4.00677 119.794 4.00677 119.664 4.07145V6.65879Z" fill="#11519C"/>
<path d="M132.213 11.1861C131.825 11.3802 130.984 11.5742 129.949 11.5742C126.845 11.5742 125.228 9.63372 125.228 7.04638C125.228 4.00625 127.427 2.2598 130.143 2.2598C131.178 2.2598 132.019 2.45385 132.343 2.6479L131.89 4.26499C131.502 4.07094 130.92 3.94157 130.208 3.94157C128.591 3.94157 127.362 4.91182 127.362 6.91701C127.362 8.72815 128.462 9.82778 130.208 9.82778C130.855 9.82778 131.502 9.69841 131.89 9.50436L132.213 11.1861Z" fill="#11519C"/>
<path d="M135.835 4.136H133.377V2.45422H140.298V4.136H137.84V11.4452H135.835V4.136Z" fill="#11519C"/>
<path d="M141.657 2.58373C142.174 2.51905 143.274 2.38968 144.309 2.38968C145.538 2.38968 146.314 2.51905 146.961 2.90715C147.608 3.23057 148.061 3.8774 148.061 4.6536C148.061 5.42981 147.608 6.20601 146.573 6.59411C147.608 6.85285 148.384 7.62905 148.384 8.79335C148.384 9.63424 147.996 10.2811 147.478 10.7339C146.832 11.2513 145.732 11.5747 143.921 11.5747C142.951 11.5747 142.174 11.5101 141.722 11.4454V2.58373H141.657ZM143.662 6.01196H144.309C145.408 6.01196 145.926 5.55917 145.926 4.91234C145.926 4.20082 145.408 3.8774 144.503 3.8774C144.05 3.8774 143.791 3.8774 143.662 3.94209V6.01196ZM143.662 10.0223C143.856 10.0223 144.115 10.0223 144.438 10.0223C145.344 10.0223 146.185 9.63424 146.185 8.72867C146.185 7.8231 145.344 7.49968 144.374 7.49968H143.662V10.0223Z" fill="#11519C"/>
<path d="M155.37 7.62891H152.071V9.76347H155.758V11.4452H150.001V2.45422H155.564V4.136H152.071V6.01182H155.37V7.62891Z" fill="#11519C"/>
<path d="M159.444 2.45422V5.88245H162.808V2.45422H164.813V11.4452H162.808V7.69359H159.444V11.4452H157.439V2.45422H159.444Z" fill="#11519C"/>
<path d="M168.889 2.45422V5.88245H172.253V2.45422H174.258V11.4452H172.253V7.69359H168.889V11.4452H166.884V2.45422H168.889Z" fill="#11519C"/>
<path d="M178.333 2.45422V5.55904C178.591 5.49435 178.979 5.49435 179.303 5.49435C181.179 5.49435 182.86 6.39992 182.86 8.4698C182.86 9.31068 182.602 9.95752 182.149 10.4103C181.308 11.3159 179.756 11.5746 178.462 11.5746C177.492 11.5746 176.716 11.5099 176.263 11.4452V2.45422H178.333ZM178.333 9.95752C178.462 10.0222 178.721 10.0222 179.044 10.0222C179.95 10.0222 180.791 9.50473 180.791 8.53448C180.791 7.49954 179.82 7.11144 179.044 7.11144C178.785 7.11144 178.527 7.11144 178.333 7.17612V9.95752ZM185.771 2.45422V11.4452H183.766V2.45422H185.771Z" fill="#11519C"/>
<path d="M189.781 2.45409V5.10612C189.781 6.52916 189.716 7.95219 189.652 9.18118H189.716C190.169 8.14624 190.816 6.91726 191.333 5.947L193.274 2.38941H195.344V11.3804H193.468V8.7284C193.468 7.37004 193.468 6.14105 193.597 4.91207H193.533C193.145 6.01169 192.562 7.17599 191.98 8.14624L190.169 11.3804H187.841V2.45409H189.781ZM191.01 0.384216C191.01 0.901685 191.204 1.2251 191.592 1.2251C191.98 1.2251 192.174 0.901685 192.174 0.384216H193.533C193.468 1.54852 192.692 2.00131 191.527 2.00131C190.363 2.00131 189.716 1.48384 189.587 0.384216H191.01Z" fill="#11519C"/>
<path d="M2.45797 20.1772H0V18.4307H6.92114V20.1125H4.46316V27.4217H2.45797V20.1772Z" fill="#11519C"/>
<path d="M13.6487 23.6701H10.3499V25.8046H14.0368V27.4864H8.28V18.4307H13.8428V20.1125H10.3499V21.9883H13.6487V23.6701Z" fill="#11519C"/>
<path d="M20.4397 27.4217L19.5988 25.8046C19.2754 25.1578 19.0814 24.705 18.8226 24.1875C18.6286 24.705 18.4345 25.1578 18.1111 25.8046L17.3996 27.4217H15.0063L17.5936 22.8939L15.1357 18.4307H17.4643L18.2405 20.0478C18.4992 20.5653 18.6932 21.018 18.952 21.5355C19.146 20.9534 19.3401 20.5653 19.5341 20.0478L20.3103 18.4307H22.639L20.1163 22.8292L22.7683 27.4217H20.4397Z" fill="#11519C"/>
<path d="M26.1966 18.4307V21.8589H29.5601V18.4307H31.5653V27.4217H29.5601V23.6701H26.1966V27.4217H24.1914V18.4307H26.1966Z" fill="#11519C"/>
<path d="M35.4477 18.43V21.0821C35.4477 22.5051 35.383 23.9281 35.3183 25.1571H35.383C35.8358 24.1222 36.4826 22.8932 37.0001 21.923L38.9406 18.3654H41.0105V27.3564H39.1346V24.7043C39.1346 23.346 39.1346 22.117 39.264 20.888H39.1993C38.8112 21.9876 38.2291 23.1519 37.6469 24.1222L35.8358 27.3564H33.5072V18.43H35.4477Z" fill="#11519C"/>
<path d="M44.8896 18.4307V21.0827C44.8896 22.1177 45.4718 22.6351 46.3774 22.6351C46.8301 22.6351 47.2829 22.5058 47.671 22.3117V18.4307H49.6762V27.5511H47.671V23.7994H47.6063C46.9595 24.1228 46.3127 24.2522 45.6012 24.2522C43.9841 24.2522 42.8198 23.4113 42.8198 21.4708V18.4307H44.8896Z" fill="#11519C"/>
<path d="M57.1154 23.6701H53.8166V25.8046H57.5035V27.4864H51.7467V18.4307H57.3095V20.1125H53.8166V21.9883H57.1154V23.6701Z" fill="#11519C"/>
<path d="M65.7831 27.2271C65.395 27.4212 64.5541 27.6152 63.5192 27.6152C60.4144 27.6152 58.7973 25.6747 58.7973 23.0874C58.7973 20.0473 60.9965 18.3008 63.7133 18.3008C64.7482 18.3008 65.5891 18.4949 65.9125 18.6889L65.4597 20.306C65.0716 20.112 64.4895 19.9826 63.7779 19.9826C62.1608 19.9826 60.9319 20.9528 60.9319 22.958C60.9319 24.7692 62.0315 25.8688 63.7779 25.8688C64.4248 25.8688 65.0716 25.7394 65.4597 25.5454L65.7831 27.2271Z" fill="#11519C"/>
<path d="M69.4052 18.4307V22.1823H69.5992L72.0572 18.4307H74.5152L71.4103 22.4411C72.5746 22.6998 73.0921 23.5407 73.4802 24.5756C73.8036 25.5459 74.0624 26.5161 74.5152 27.4217H72.3159C71.9925 26.8396 71.8631 26.128 71.6044 25.4165C71.281 24.3816 70.8929 23.6054 69.7933 23.6054H69.4052V27.357H67.4V18.4307H69.4052Z" fill="#11519C"/>
<path d="M77.5559 18.43V21.0821C77.5559 22.5051 77.4912 23.9281 77.4266 25.1571H77.4912C77.944 24.1222 78.5909 22.8932 79.1083 21.923L81.0488 18.3654H83.1187V27.3564H81.2429V24.7043C81.2429 23.346 81.2429 22.117 81.3723 20.888H81.3076C80.9195 21.9876 80.3373 23.1519 79.7552 24.1222L77.944 27.3564H75.6154V18.43H77.5559Z" fill="#11519C"/>
<path d="M87.0637 18.4304V21.0824C87.0637 22.5055 86.9991 23.9285 86.9344 25.1575H86.9991C87.4518 24.1226 88.0987 22.8936 88.6161 21.9233L90.5567 18.3657H92.6265V27.3568H90.7507V24.7047C90.7507 23.3464 90.7507 22.1174 90.8801 20.8884H90.8154C90.4273 21.988 89.8451 23.1523 89.263 24.1226L87.4518 27.3568H85.1232V18.4304H87.0637ZM88.2927 16.4252C88.2927 16.9427 88.4868 17.2661 88.8749 17.2661C89.263 17.2661 89.457 16.9427 89.457 16.4252H90.8154C90.7507 17.5895 89.9745 18.0423 88.8102 18.0423C87.6459 18.0423 86.9991 17.5249 86.8697 16.4252H88.2927Z" fill="#11519C"/>
<path d="M98.7713 18.4307L100.065 21.6649C100.324 22.3117 100.518 22.8292 100.712 23.4113H100.777C100.906 23.0232 101.035 22.4411 101.229 21.6649L102.2 18.4307H104.334L102.652 22.8939C102.135 24.2522 101.553 25.6106 100.906 26.4515C100.324 27.163 99.5475 27.6158 98.5126 27.6158C98.0598 27.6158 97.8011 27.5511 97.5423 27.4864L97.6717 25.8693C97.8657 25.934 98.0598 25.934 98.3185 25.934C98.9654 25.934 99.3535 25.4812 99.5475 25.0931C99.6122 24.9637 99.5475 24.8344 99.4828 24.6403L96.5074 18.4307H98.7713Z" fill="#11519C"/>
<path d="M107.504 18.4307V21.8589H110.868V18.4307H112.873V27.4217H110.868V23.6701H107.504V27.4217H105.499V18.4307H107.504Z" fill="#11519C"/>
<path d="M116.754 18.43V21.0821C116.754 22.5051 116.689 23.9281 116.624 25.1571H116.689C117.142 24.1222 117.789 22.8932 118.306 21.923L120.246 18.3654H122.316V27.3564H120.441V24.7043C120.441 23.346 120.441 22.117 120.57 20.888H120.505C120.117 21.9876 119.535 23.1519 118.953 24.1222L117.142 27.3564H114.813V18.43H116.754Z" fill="#11519C"/>
<path d="M124.387 18.5594C124.904 18.4947 126.004 18.3654 127.039 18.3654C128.268 18.3654 129.044 18.4947 129.691 18.8828C130.338 19.2062 130.791 19.8531 130.791 20.6293C130.791 21.4055 130.338 22.1817 129.303 22.5698C130.338 22.8285 131.114 23.6047 131.114 24.769C131.114 25.6099 130.726 26.2568 130.209 26.7095C129.562 27.227 128.462 27.5504 126.651 27.5504C125.681 27.5504 124.904 27.4857 124.452 27.4211V18.5594H124.387ZM126.392 21.9876H127.039C128.139 21.9876 128.656 21.5349 128.656 20.888C128.656 20.1765 128.139 19.8531 127.233 19.8531C126.78 19.8531 126.522 19.8531 126.392 19.9178V21.9876ZM126.392 25.998C126.586 25.998 126.845 25.998 127.168 25.998C128.074 25.998 128.915 25.6099 128.915 24.7043C128.915 23.7988 128.074 23.4754 127.104 23.4754H126.392V25.998Z" fill="#11519C"/>
<path d="M138.034 23.6701H134.735V25.8046H138.422V27.4864H132.73V18.4307H138.293V20.1125H134.8V21.9883H138.099V23.6701H138.034Z" fill="#11519C"/>
<path d="M140.105 18.5594C140.752 18.43 141.593 18.3654 142.822 18.3654C144.051 18.3654 144.956 18.6241 145.538 19.0769C146.121 19.5297 146.509 20.3059 146.509 21.1467C146.509 22.0523 146.25 22.7638 145.668 23.2813C144.956 23.9281 143.921 24.2516 142.757 24.2516C142.498 24.2516 142.24 24.2516 142.045 24.1869V27.4211H140.04V18.5594H140.105ZM142.11 22.6345C142.304 22.6992 142.498 22.6992 142.822 22.6992C143.921 22.6992 144.568 22.1817 144.568 21.2761C144.568 20.4352 143.986 19.9824 142.951 19.9824C142.563 19.9824 142.24 19.9824 142.11 20.0471V22.6345Z" fill="#11519C"/>
<path d="M154.659 27.2271C154.271 27.4212 153.43 27.6152 152.395 27.6152C149.29 27.6152 147.673 25.6747 147.673 23.0874C147.673 20.0473 149.873 18.3008 152.589 18.3008C153.624 18.3008 154.465 18.4949 154.788 18.6889L154.336 20.306C153.948 20.112 153.365 19.9826 152.654 19.9826C151.037 19.9826 149.808 20.9528 149.808 22.958C149.808 24.7692 150.907 25.8688 152.654 25.8688C153.301 25.8688 153.948 25.7394 154.336 25.5454L154.659 27.2271Z" fill="#11519C"/>
<path d="M158.152 18.43V21.0821C158.152 22.5051 158.087 23.9281 158.023 25.1571H158.087C158.54 24.1222 159.187 22.8932 159.704 21.923L161.645 18.3654H163.715V27.3564H161.839V24.7043C161.839 23.346 161.839 22.117 161.968 20.888H161.904C161.515 21.9876 160.933 23.1519 160.351 24.1222L158.54 27.3564H156.211V18.43H158.152Z" fill="#11519C"/>
<path d="M167.466 20.1772H165.072V18.4307H171.993V20.1125H169.535V27.4217H167.53V20.1772H167.466Z" fill="#11519C"/>
<path d="M178.656 23.6701H175.358V25.8046H179.045V27.4864H173.288V18.4307H178.85V20.1125H175.358V21.9883H178.656V23.6701Z" fill="#11519C"/>
<path d="M182.472 20.1772H180.014V18.4307H186.935V20.1125H184.477V27.4217H182.472V20.1772Z" fill="#11519C"/>
</svg>