<svg width="56" height="56" viewBox="0 0 56 56" fill="none" xmlns="http://www.w3.org/2000/svg">
<g clip-path="url(#clip0_5662_1753)">
<path d="M7.92792 34.7286L7.91695 34.7068L7.89489 34.7172L7.2619 35.0167L7.23922 35.0274L7.25002 35.05L7.60992 35.8043L6.89736 36.1714L6.8746 36.1831L6.88687 36.2056C7.19186 36.7643 7.51788 37.3099 7.86361 37.8409L7.87657 37.8608L7.8971 37.8489L8.57774 37.4544L9.46645 38.655L8.81231 39.1548L8.79261 39.1699L8.80749 39.1897C9.21107 39.7274 9.63568 40.248 10.0813 40.7501L10.0973 40.7681L10.1159 40.7529L10.679 40.2917L11.7446 41.3318L11.206 41.9023L11.1892 41.92L11.2066 41.9372C11.6522 42.3776 12.115 42.8022 12.5922 43.2084L12.6088 43.2226L12.6251 43.2079L13.1929 42.6975L14.3101 43.6858L13.9761 44.2722L13.965 44.2916L13.983 44.3048C14.4878 44.6755 15.0084 45.0265 15.5408 45.3578L15.5605 45.37L15.5742 45.3513L16.0169 44.744L17.3766 45.4986L17.078 46.2133L17.0691 46.2345L17.0894 46.2451C17.6179 46.5225 18.1582 46.7815 18.7077 47.0207L18.7287 47.0299L18.7396 47.0097L19.0889 46.3659L20.5341 46.9289L20.3417 47.6387L20.3356 47.6611L20.3575 47.6688C20.9293 47.87 21.5104 48.0501 22.0993 48.2091L22.1218 48.2152L22.1295 48.1932L22.377 47.4837L23.8936 47.7965L23.8132 48.579L23.8108 48.6018L23.8333 48.6061C24.4459 48.7245 25.0664 48.8191 25.6948 48.8901L25.7173 48.8926L25.7221 48.8705L25.8843 48.1157L27.4276 48.2318L27.4442 48.9997L27.4447 49.0232L27.4682 49.0242C27.7915 49.0373 28.1162 49.0452 28.4423 49.0452C28.7592 49.0452 29.0734 49.0373 29.3862 49.0255L29.4098 49.0246L29.4102 49.001L29.4242 48.3185L30.9675 48.2024L31.1114 48.8757L31.1161 48.8978L31.1386 48.8954C31.7696 48.8257 32.394 48.731 33.0093 48.614L33.0318 48.6097L33.0295 48.5869L32.9569 47.8832L34.4735 47.5704L34.6961 48.2077L34.7037 48.2296L34.7261 48.2236C35.3177 48.0658 35.9014 47.8857 36.4746 47.6859L36.4965 47.6783L36.4905 47.6558L36.3177 47.0156L37.7629 46.4526L38.0807 47.0386L38.0916 47.0587L38.1125 47.0497C38.666 46.8117 39.2077 46.5527 39.7387 46.2753L39.7591 46.2647L39.7502 46.2435L39.4752 45.5865L40.8349 44.832L41.2448 45.3933L41.2584 45.412L41.2781 45.3998C41.8145 45.0685 42.3364 44.7175 42.8451 44.3482L42.8632 44.335L42.8521 44.3156L42.543 43.7725L43.6602 42.7842L44.1939 43.2644L44.2101 43.279L44.2267 43.2649C44.7079 42.86 45.1719 42.4367 45.6202 41.9964L45.6377 41.9792L45.6208 41.9613L45.1085 41.4198L46.1741 40.3797L46.711 40.8199L46.7295 40.8351L46.7455 40.8172C47.1925 40.3163 47.6184 39.797 48.0233 39.262L48.0383 39.2422L48.0185 39.2271L47.3854 38.743L48.2741 37.5423L48.9377 37.9264L48.9581 37.9383L48.9711 37.9185C49.3195 37.3887 49.6468 36.8445 49.9531 36.2871L49.9655 36.2646L49.9426 36.2528L49.2432 35.8923L49.6031 35.138L49.6139 35.1154L49.5912 35.1046L48.8599 34.7593C48.8265 34.732 48.7968 34.7202 48.7688 34.7183C48.7424 34.7166 48.72 34.7241 48.7033 34.7297L48.7006 34.7306L48.6908 34.7338L48.6862 34.7431C48.6815 34.7525 48.6778 34.7602 48.6752 34.7657L48.6723 34.772L48.6718 34.7732L48.6715 34.7737L48.6715 34.7737C44.8893 42.2484 37.1746 47.3904 28.3071 47.3904C19.4223 47.3904 11.6969 42.2285 7.92792 34.7286Z" fill="#11519C" stroke="#11519C" stroke-width="0.05"/>
<path d="M7.56474 33.9736C7.56113 33.9656 7.55826 33.9593 7.55642 33.9556C6.22239 31.0355 5.47602 27.7902 5.47602 24.3743C5.47602 11.6966 15.7321 1.35814 28.307 1.35814C40.8819 1.35814 51.1379 11.6979 51.1379 24.3743C51.1379 27.7392 50.4138 30.9387 49.1177 33.8234L49.0944 33.8754L49.1218 33.8663C49.1121 33.8912 49.1051 33.9127 49.1006 33.9315C49.0934 33.961 49.0918 33.9854 49.0964 34.006C49.1065 34.0503 49.143 34.0653 49.17 34.076C49.1702 34.0761 49.1705 34.0761 49.1707 34.0762L50.6822 34.7835L50.7049 34.7941L50.7155 34.7714C52.1642 31.6465 52.974 28.1707 52.974 24.5095C52.974 10.9967 41.9524 -0.0248169 28.4396 -0.0248169C14.9268 -0.0248169 3.90658 10.9967 3.90658 24.5095C3.90658 28.1378 4.70192 31.5847 6.12564 34.6872L6.13614 34.7101L6.15896 34.6994L7.56808 34.0402L7.59083 34.0295L7.58008 34.0068C7.57425 33.9945 7.56898 33.9829 7.56474 33.9736Z" fill="#11519C" stroke="#11519C" stroke-width="0.05"/>
<path fill-rule="evenodd" clip-rule="evenodd" d="M7.55768 34.0174C7.63647 34.1855 7.87811 34.6741 7.87417 34.6793C7.88468 34.699 7.89519 34.72 7.90438 34.7397" fill="#11519C"/>
<path fill-rule="evenodd" clip-rule="evenodd" d="M22.1137 14.5195L22.0927 16.3515C22.9358 16.2924 23.3613 16.7047 23.6936 17.775L23.6476 28.574C23.3128 29.3514 22.8045 29.6692 21.901 29.7887V32.2091L26.2072 32.213L26.2518 29.7664C25.3076 29.6994 24.7665 29.2398 24.6943 28.5635L24.7337 17.6122C25.3181 15.9286 27.5874 15.6068 27.5822 18.8427L27.9617 18.8414L27.9289 14.5195H22.1137Z" fill="#11519C"/>
<path fill-rule="evenodd" clip-rule="evenodd" d="M29.0673 14.5196L29.0699 18.8468L29.3864 18.8389C29.4783 15.7593 30.9387 15.8985 31.5769 17.502L31.5467 28.5229C31.3773 29.3647 30.7207 29.7153 29.9498 29.7679L29.9616 32.2342L34.2363 32.2119L34.2245 29.6379C33.4825 29.8125 32.9677 29.324 32.6236 28.5649L32.6459 17.5033C33.1371 15.3943 35.1753 16.2111 34.8535 18.8416H35.1556L35.149 14.5183L29.0673 14.5196Z" fill="#11519C"/>
<path fill-rule="evenodd" clip-rule="evenodd" d="M36.1602 14.5195L36.151 16.383C36.7735 16.3804 37.3881 16.6877 37.3737 17.3955L37.4065 23.4733C37.5457 25.2895 39.5051 25.8975 40.7278 25.0124L40.7212 27.0256C40.3824 28.1892 39.8689 29.0205 38.7277 29.8334L35.8858 29.8281L35.9068 32.2222L42.5322 32.2012V29.8465L40.3824 29.8675C40.8893 29.4473 41.5341 28.4584 41.7521 27.5142L41.9044 17.3351C42.0095 16.6181 42.4245 16.4145 43.2098 16.3817L43.2216 14.526H40.1499L40.1381 16.3712C40.7566 16.6772 40.7461 16.8689 40.7566 17.6214L40.7146 23.2027C40.4585 24.8456 38.5898 24.4359 38.4164 23.4129L38.4584 17.6687C38.4427 17.1604 38.6134 16.6102 39.1991 16.3646L39.2031 14.5287L36.1602 14.5195Z" fill="#11519C"/>
<path fill-rule="evenodd" clip-rule="evenodd" d="M13.7075 14.5341H21.3362L21.2824 16.3569C20.4878 16.2623 19.931 16.63 19.9678 17.7213L19.9323 28.8998C20.0768 29.4803 20.4983 29.7705 21.1116 29.7679L21.1235 32.2092H12.8814L12.8079 29.7574C13.5551 29.936 14.3943 29.5591 14.7752 28.2484L14.8605 19.1318C15.1166 17.8868 15.7036 16.8296 16.9131 16.3621L13.7114 16.3634L13.7075 14.5341ZM16.1751 18.5342L16.1396 28.3561C16.6295 30.1526 18.5639 30.2564 18.9684 28.3561L18.9566 18.2624C18.3249 16.8598 16.6781 16.9203 16.1751 18.5342Z" fill="#11519C"/>
<path fill-rule="evenodd" clip-rule="evenodd" d="M8.09213 14.6379H12.6124V15.1238H8.09213V14.6379Z" fill="#11519C"/>
<path fill-rule="evenodd" clip-rule="evenodd" d="M44.3551 14.5656H48.5391V15.0515H44.3551V14.5656Z" fill="#11519C"/>
<path fill-rule="evenodd" clip-rule="evenodd" d="M8.00812 33.0353H48.6102V33.5068H8.00812V33.0353Z" fill="#11519C"/>
<path d="M14.795 52.7707C15.0248 52.7549 15.1286 52.3885 14.9539 52.2204C14.4772 51.7897 13.8166 51.5087 12.3589 51.6098C13.0575 52.2874 13.8324 52.8272 14.795 52.7707Z" fill="#11519C"/>
<path fill-rule="evenodd" clip-rule="evenodd" d="M14.8197 53.3264L11.2542 52.7275L14.8197 53.3264Z" fill="#11519C"/>
<path d="M11.2691 52.6601L11.2466 52.7935L14.8122 53.3929L14.8346 53.2595L11.2691 52.6601Z" fill="#11519C"/>
<path d="M5.38814 49.806L5.35623 49.9348L11.9003 51.5569L11.9322 51.4282L5.38814 49.806Z" fill="#11519C"/>
<path d="M3.75252 47.1034L3.71857 47.1716L9.90356 50.251L9.9375 50.1828L3.75252 47.1034Z" fill="#11519C"/>
<path d="M2.29018 44.4884L2.24695 44.5527L7.97314 48.4028L8.01638 48.3385L2.29018 44.4884Z" fill="#11519C"/>
<path d="M2.094 42.1397L2.05154 42.1862L6.7591 46.4766L6.80156 46.43L2.094 42.1397Z" fill="#11519C"/>
<path d="M2.04281 40.1684L2.00012 40.2093L5.98099 44.3669L6.02367 44.326L2.04281 40.1684Z" fill="#11519C"/>
<path d="M2.96716 38.4848L2.94757 38.498L5.3066 41.9919L5.32619 41.9786L2.96716 38.4848Z" fill="#11519C"/>
<path d="M6.10187 40.6303L6.08044 40.6403L7.29672 43.2465L7.31814 43.2365L6.10187 40.6303Z" fill="#11519C"/>
<path d="M7.14865 41.2424L7.12689 41.2516L8.0784 43.4928L8.10016 43.4836L7.14865 41.2424Z" fill="#11519C"/>
<path d="M8.46396 41.8576L8.44159 41.8652L9.48297 44.9124L9.50534 44.9048L8.46396 41.8576Z" fill="#11519C"/>
<path d="M9.55491 42.8305L9.53256 42.8382L10.9081 46.8244L10.9305 46.8167L9.55491 42.8305Z" fill="#11519C"/>
<path d="M10.363 42.9094L10.3412 42.9183L12.5351 48.2868L12.5569 48.2778L10.363 42.9094Z" fill="#11519C"/>
<path d="M10.9245 42.8094L10.9034 42.8201L14.3681 49.6461L14.3892 49.6354L10.9245 42.8094Z" fill="#11519C"/>
<path d="M16.0332 51.1353C14.435 48.6901 13.0456 46.1305 11.7835 43.311L11.8045 43.3018C13.0653 46.12 14.4547 48.6782 16.0529 51.1235L16.0332 51.1353Z" fill="#11519C"/>
<path d="M19.2247 51.6925C17.4649 50.3543 15.9612 48.7298 14.4943 46.5827L14.514 46.5695C15.9796 48.7154 17.482 50.3373 19.2391 51.6742L19.2247 51.6925Z" fill="#11519C"/>
<path fill-rule="evenodd" clip-rule="evenodd" d="M9.13739 48.2402C9.36721 48.2769 9.55632 47.9552 9.425 47.7569C9.0586 47.246 8.47682 46.8337 7.02042 46.6052C7.54441 47.3984 8.1774 48.0786 9.13739 48.2402Z" fill="#11519C"/>
<path d="M9.17148 48.2444C9.15966 48.2444 9.14784 48.243 9.13602 48.2417C8.6882 48.1669 8.28765 47.9765 7.91337 47.6613C7.6087 47.4039 7.32372 47.069 7.01773 46.6067L7.01642 46.6041H7.01904C7.70457 46.7118 8.2325 46.8654 8.63041 47.0729C8.96398 47.2476 9.21613 47.4643 9.42362 47.7558C9.48666 47.8517 9.48009 47.987 9.40786 48.0999C9.35008 48.1905 9.26209 48.2444 9.17148 48.2444ZM9.13733 48.2391C9.23845 48.2549 9.34089 48.201 9.40786 48.0973C9.48009 47.9856 9.48666 47.8517 9.42362 47.7571C9.09925 47.3041 8.58445 46.8523 7.02298 46.6067C7.46555 47.2765 8.10511 48.0658 9.13733 48.2391Z" fill="#11519C"/>
<path fill-rule="evenodd" clip-rule="evenodd" d="M7.92146 46.57C8.12895 46.6474 8.37322 46.3808 8.29179 46.1707C8.05409 45.6218 7.59314 45.1267 6.27332 44.6395C6.60163 45.4813 7.0547 46.239 7.92146 46.57Z" fill="#11519C"/>
<path d="M7.9976 46.5843C7.97264 46.5843 7.94638 46.5803 7.92274 46.5712L7.92143 46.5698C7.51694 46.4149 7.18075 46.1614 6.89446 45.795C6.6607 45.4969 6.46371 45.1292 6.27197 44.6367L6.27066 44.6341L6.27329 44.6354C6.89446 44.8652 7.35804 45.1082 7.68898 45.3787C7.96608 45.6046 8.15781 45.8554 8.29308 46.168C8.33248 46.2691 8.29965 46.3939 8.20772 46.4858C8.14599 46.5515 8.07114 46.5843 7.9976 46.5843ZM7.92143 46.5685C8.01336 46.6027 8.12236 46.5712 8.2064 46.4858C8.29702 46.3939 8.32985 46.2704 8.29045 46.1706C8.08033 45.6847 7.69029 45.1633 6.27591 44.6407C6.55301 45.3511 6.99033 46.2113 7.92143 46.5685Z" fill="#11519C"/>
<path fill-rule="evenodd" clip-rule="evenodd" d="M7.30687 44.8308C7.53275 44.9425 7.83086 44.6536 7.75864 44.3975C7.54457 43.729 7.07443 43.1013 5.64297 42.3974C5.93058 43.4204 6.36789 44.3554 7.30687 44.8308Z" fill="#11519C"/>
<path d="M7.41453 44.8575C7.37776 44.8575 7.34099 44.8496 7.30685 44.8325C7.08096 44.7183 6.87347 44.5712 6.69093 44.3952C6.52152 44.2324 6.36655 44.0393 6.22997 43.82C5.99621 43.4457 5.80973 42.994 5.64295 42.3977L5.64163 42.3951L5.64426 42.3964C6.31927 42.7274 6.81437 43.0596 7.15845 43.4103C7.44736 43.7031 7.63779 44.017 7.75992 44.3978C7.80063 44.5449 7.72052 44.692 7.62203 44.7747C7.55636 44.8286 7.48282 44.8575 7.41453 44.8575ZM7.30816 44.8299C7.40403 44.8772 7.52091 44.8548 7.62071 44.7721C7.7179 44.6907 7.798 44.5436 7.75729 44.3991C7.56818 43.8082 7.18077 43.1568 5.64557 42.4017C5.88853 43.2645 6.29695 44.319 7.30816 44.8299Z" fill="#11519C"/>
<path fill-rule="evenodd" clip-rule="evenodd" d="M8.73005 46.4787C8.87713 46.6521 9.22777 46.5207 9.25929 46.283C9.32233 45.6527 9.15948 44.9632 8.22707 43.8666C8.09706 44.8161 8.12201 45.7472 8.73005 46.4787Z" fill="#11519C"/>
<path d="M8.91412 46.5606C8.83926 46.5606 8.7736 46.533 8.72895 46.4804C8.44528 46.139 8.27325 45.7385 8.20102 45.2552C8.14192 44.8625 8.15111 44.4213 8.22597 43.8671V43.8644L8.22859 43.8671C8.66722 44.3845 8.95877 44.8363 9.11767 45.2512C9.25162 45.5979 9.29628 45.9263 9.26082 46.2848C9.24243 46.4214 9.12161 46.5146 9.0113 46.5474C8.97715 46.5553 8.94432 46.5606 8.91412 46.5606ZM8.73157 46.4791C8.7933 46.5527 8.89836 46.5763 9.0113 46.5435C9.12161 46.512 9.23981 46.4187 9.25819 46.2835C9.31335 45.7253 9.22798 45.0464 8.22859 43.8697C8.11959 44.6721 8.07757 45.6912 8.73157 46.4791Z" fill="#11519C"/>
<path fill-rule="evenodd" clip-rule="evenodd" d="M10.1276 48.1218C10.2891 48.3056 10.687 48.1704 10.7291 47.9208C10.8157 47.2589 10.6489 46.5327 9.62722 45.3692C9.45781 46.3686 9.46176 47.3456 10.1276 48.1218Z" fill="#11519C"/>
<path d="M10.3378 48.2087C10.2512 48.2087 10.175 48.1785 10.1264 48.1234C9.96617 47.9369 9.83747 47.7294 9.74292 47.5061C9.65625 47.3 9.59452 47.0728 9.56169 46.8298C9.50522 46.4161 9.52623 45.9526 9.62473 45.3708V45.3682L9.62604 45.3708C10.108 45.9184 10.4245 46.3978 10.5926 46.8351C10.7344 47.2002 10.7765 47.5469 10.7279 47.9238C10.7174 47.9868 10.6832 48.0459 10.6307 48.0945C10.5821 48.1391 10.5177 48.1746 10.4495 48.1943C10.414 48.2035 10.3746 48.2087 10.3378 48.2087ZM10.129 48.1221C10.1986 48.2009 10.3221 48.2271 10.4521 48.1904C10.5992 48.1483 10.7082 48.0433 10.7292 47.9225C10.8053 47.3367 10.7252 46.6223 9.62998 45.3747C9.48552 46.2152 9.41329 47.2881 10.129 48.1221Z" fill="#11519C"/>
<path fill-rule="evenodd" clip-rule="evenodd" d="M10.8698 49.8315C11.1088 49.8092 11.2007 49.3863 11.0103 49.1946C10.4916 48.7087 9.78635 48.3974 8.26691 48.5406C9.0286 49.3062 9.86383 49.9129 10.8698 49.8315Z" fill="#11519C"/>
<path d="M10.6897 49.8398C10.5072 49.8398 10.3259 49.8175 10.146 49.7728C9.9254 49.7177 9.69952 49.6284 9.47627 49.5049C9.09542 49.2948 8.71064 48.9888 8.26544 48.541L8.26282 48.5384H8.26544C8.98117 48.4701 9.55244 48.5003 10.0134 48.629C10.3982 48.7367 10.7147 48.9153 11.0102 49.1924C11.1283 49.3106 11.1323 49.5036 11.085 49.6336C11.043 49.7505 10.9642 49.8227 10.8696 49.8319H10.8683C10.8092 49.8385 10.7488 49.8398 10.6897 49.8398ZM8.26938 48.5423C8.87742 49.153 9.69296 49.8385 10.691 49.8385C10.7501 49.8385 10.8092 49.8359 10.8696 49.8306H10.8709C10.9642 49.8214 11.0417 49.7505 11.0837 49.635C11.1297 49.5063 11.127 49.3145 11.0088 49.1963C10.6201 48.8326 10.0961 48.5069 8.96147 48.5069C8.75266 48.5069 8.52284 48.5174 8.26938 48.5423Z" fill="#11519C"/>
<path fill-rule="evenodd" clip-rule="evenodd" d="M12.7373 51.1927C12.9684 51.1454 13.0236 50.7593 12.8226 50.6122C12.2789 50.2405 11.5698 50.0449 10.1042 50.3469C10.9066 50.9405 11.7668 51.3818 12.7373 51.1927Z" fill="#11519C"/>
<path d="M12.28 51.2385C11.978 51.2385 11.6733 51.1807 11.3568 51.0638C10.9694 50.9207 10.5715 50.6935 10.1027 50.3481L10.1 50.3468H10.1027C10.7934 50.2049 11.3503 50.1655 11.8073 50.226C12.1894 50.2772 12.5125 50.3993 12.8211 50.6107C12.9354 50.6948 12.9616 50.8511 12.9354 50.9679C12.9091 51.0888 12.8342 51.1741 12.7344 51.1938C12.5847 51.224 12.4337 51.2385 12.28 51.2385ZM10.1079 50.3481C10.7842 50.8471 11.6943 51.3948 12.7371 51.1912C12.8356 51.1715 12.9091 51.0875 12.9354 50.9679C12.9603 50.8524 12.9354 50.6974 12.8224 50.6134C12.3405 50.2851 11.6786 50.025 10.1079 50.3481Z" fill="#11519C"/>
<path fill-rule="evenodd" clip-rule="evenodd" d="M11.8614 49.871C12.0347 50.0352 12.3972 49.8658 12.4103 49.6176C12.4182 48.9623 12.1805 48.2702 11.0813 47.2301C11.0301 48.2216 11.143 49.1763 11.8614 49.871Z" fill="#11519C"/>
<path d="M12.0372 49.9383C11.9689 49.9383 11.9059 49.916 11.8612 49.8726C11.5263 49.5483 11.3031 49.153 11.1823 48.6631C11.0825 48.2639 11.0509 47.8095 11.0798 47.2317V47.229L11.0825 47.2317C11.5999 47.7215 11.9545 48.1588 12.1633 48.5699C12.3379 48.9139 12.418 49.2475 12.4128 49.6205C12.4102 49.6822 12.3839 49.7439 12.3393 49.7965C12.2972 49.845 12.2408 49.8858 12.1777 49.9107C12.1291 49.9278 12.0819 49.9383 12.0372 49.9383ZM11.8625 49.8713C11.9361 49.9409 12.0569 49.9554 12.1751 49.9081C12.3104 49.8529 12.4023 49.74 12.4089 49.6205C12.4167 49.0413 12.2605 48.3506 11.0825 47.2369C11.0391 48.0708 11.0903 49.1241 11.8625 49.8713Z" fill="#11519C"/>
<path fill-rule="evenodd" clip-rule="evenodd" d="M13.6983 51.1902C13.8835 51.3267 14.2144 51.1297 14.1987 50.896C14.1343 50.2788 13.8296 49.6523 12.6556 48.7882C12.7173 49.7246 12.9314 50.611 13.6983 51.1902Z" fill="#11519C"/>
<path d="M13.8428 51.2359C13.789 51.2359 13.739 51.2214 13.6983 51.1912C13.3398 50.9207 13.0824 50.5713 12.9117 50.1235C12.7725 49.7584 12.6911 49.3343 12.6556 48.7879V48.7853L12.6582 48.7866C13.2111 49.1937 13.5998 49.5693 13.8454 49.9331C14.0516 50.2378 14.1645 50.5438 14.2013 50.8944C14.2092 51.006 14.1357 51.1216 14.0135 51.1886C13.9557 51.2201 13.898 51.2359 13.8428 51.2359ZM13.6997 51.1886C13.7811 51.249 13.9006 51.2477 14.0122 51.186C14.133 51.1203 14.2053 51.006 14.1974 50.8944C14.1409 50.3494 13.915 49.7164 12.6582 48.7893C12.7095 49.5811 12.8749 50.5661 13.6997 51.1886Z" fill="#11519C"/>
<path fill-rule="evenodd" clip-rule="evenodd" d="M14.8014 52.8515C15.0313 52.8358 15.2414 52.5311 15.0917 52.2842C14.8461 51.7917 13.8047 51.3465 12.15 51.5317C12.8447 52.2829 13.8349 52.9894 14.8014 52.8515Z" fill="#11519C"/>
<path d="M14.5532 52.8696C14.1803 52.8696 13.7837 52.754 13.3726 52.5255C12.9616 52.297 12.5387 51.953 12.1487 51.5327L12.1473 51.5301H12.15C12.9103 51.4447 13.6011 51.4867 14.1501 51.6522C14.3917 51.7244 14.5979 51.819 14.762 51.9319C14.9183 52.0396 15.0299 52.1578 15.093 52.2839C15.1573 52.3916 15.16 52.5203 15.0982 52.6385C15.0352 52.7606 14.9183 52.8447 14.8014 52.8525C14.72 52.8644 14.6373 52.8696 14.5532 52.8696ZM12.1526 51.5327C12.5413 51.9516 13.5092 52.867 14.5559 52.867C14.6373 52.867 14.7187 52.8617 14.8014 52.8499C14.9183 52.842 15.0339 52.758 15.0969 52.6372C15.1573 52.5203 15.156 52.3916 15.0917 52.2852C14.8855 51.8702 14.1277 51.4894 12.9011 51.4894C12.6674 51.4894 12.4192 51.5038 12.1526 51.5327Z" fill="#11519C"/>
<path fill-rule="evenodd" clip-rule="evenodd" d="M15.3805 52.4152C15.5342 52.5465 15.8231 52.381 15.8165 52.1683C15.781 51.6062 15.5407 51.0257 14.5676 50.1971C14.5899 51.0494 14.7449 51.861 15.3805 52.4152Z" fill="#11519C"/>
<path d="M15.5132 52.4634C15.4633 52.4634 15.4186 52.4476 15.3819 52.4174L15.3793 52.4148C15.0825 52.1561 14.8736 51.8304 14.7423 51.4167C14.6346 51.0805 14.5795 50.6918 14.5663 50.1954V50.1928L14.569 50.1954C15.0273 50.5854 15.3464 50.9413 15.546 51.2815C15.7115 51.5664 15.7982 51.8475 15.8192 52.1679C15.8231 52.2901 15.7312 52.3886 15.6393 52.4332C15.5959 52.4529 15.5539 52.4634 15.5132 52.4634ZM15.3806 52.4135C15.4462 52.47 15.5421 52.4765 15.6367 52.4306C15.7286 52.3872 15.8192 52.2887 15.8153 52.1679C15.7837 51.6715 15.6117 51.0884 14.569 50.1993C14.5887 50.919 14.6977 51.8186 15.3806 52.4135Z" fill="#11519C"/>
<path fill-rule="evenodd" clip-rule="evenodd" d="M28.3598 55.9963C25.355 55.7048 22.3752 55.5603 19.209 54.3311C18.731 54.1052 18.1505 54.0409 17.4715 54.1394C16.7361 54.2142 15.8799 53.7756 15.0197 53.3212C15.591 53.048 16.241 52.8366 17.8353 53.7047C18.1058 53.8426 18.3659 53.5195 17.8931 53.3842C16.6731 53.0231 16.3645 52.3139 16.1845 51.5549C17.6909 51.9397 18.2267 53.1452 18.8294 53.5891C21.888 55.2832 26.1535 55.4671 28.3847 55.6654C28.5765 55.6759 28.5568 56.0081 28.3598 55.9963Z" fill="#11519C"/>
<path d="M28.3702 55.9973C28.3663 55.9973 28.3637 55.9973 28.3597 55.9973C28.0025 55.9632 27.6387 55.929 27.2881 55.8975C25.988 55.7793 24.6432 55.6559 23.3024 55.43C22.5801 55.3079 21.9182 55.1673 21.276 54.9992C20.555 54.8101 19.8787 54.5921 19.2089 54.3308C18.7322 54.1062 18.1478 54.0419 17.4715 54.1391C17.1392 54.1732 16.7531 54.1036 16.2909 53.9289C15.8864 53.7753 15.4753 53.5625 15.0183 53.3209L15.0157 53.3196L15.0183 53.3183C15.2941 53.187 15.6001 53.0596 16.0427 53.0819C16.5259 53.1055 17.113 53.3091 17.8353 53.7018C17.9469 53.7582 18.0467 53.7333 18.0979 53.6952C18.1399 53.6637 18.1596 53.619 18.1517 53.5744C18.1439 53.5284 18.0979 53.443 17.893 53.3839C17.3336 53.2185 16.9265 52.9676 16.6481 52.6183C16.3815 52.2821 16.2633 51.8921 16.1832 51.5533V51.5506H16.1858C16.6533 51.6701 17.0683 51.8776 17.4531 52.1862C17.7867 52.4541 18.0467 52.7536 18.2752 53.0189C18.4761 53.2513 18.6482 53.4509 18.8307 53.5849C21.5833 55.1096 25.3878 55.4169 27.6611 55.6007C27.9198 55.6217 28.164 55.6414 28.386 55.6611C28.4385 55.6638 28.4792 55.6913 28.5029 55.7373C28.5331 55.7964 28.5278 55.8765 28.491 55.9317C28.4608 55.975 28.4188 55.9973 28.3702 55.9973ZM28.3597 55.9947C28.4122 55.9973 28.4569 55.9763 28.4858 55.933C28.5212 55.8791 28.5265 55.8003 28.4976 55.7412C28.4753 55.6953 28.4346 55.669 28.3833 55.6664C28.1614 55.6467 27.9171 55.627 27.6584 55.606C26.4594 55.5088 24.9663 55.388 23.3956 55.0991C22.542 54.9415 21.7488 54.7471 21.0383 54.5225C20.2149 54.2612 19.4703 53.9473 18.8268 53.5914C18.6442 53.4575 18.4722 53.2566 18.2713 53.0254C17.809 52.4909 17.2351 51.8277 16.1858 51.5585C16.3486 52.2467 16.6297 53.011 17.893 53.3853C18.1005 53.4444 18.1452 53.531 18.1544 53.577C18.1623 53.623 18.1426 53.6689 18.1005 53.7004C18.048 53.7398 17.9482 53.7648 17.8353 53.707C16.2777 52.8586 15.6158 53.0399 15.0236 53.3222C15.759 53.7109 16.5837 54.1469 17.3047 54.1469C17.3612 54.1469 17.4176 54.1443 17.4728 54.1391C17.8116 54.0905 18.1294 54.0826 18.417 54.1141C18.7059 54.1456 18.9725 54.2192 19.2102 54.3321C21.9996 55.4156 24.6892 55.6611 27.2894 55.8975C27.6387 55.9264 28.0025 55.9592 28.3597 55.9947Z" fill="#11519C"/>
<path fill-rule="evenodd" clip-rule="evenodd" d="M28.1156 54.8811C28.2587 54.759 28.1497 54.4701 27.9528 54.4438C27.4314 54.3926 26.8628 54.5279 25.9566 55.2987C26.7432 55.4038 27.5115 55.3828 28.1156 54.8811Z" fill="#11519C"/>
<path d="M26.6484 55.3515C26.441 55.3515 26.2138 55.3344 25.9577 55.2989H25.955L25.9577 55.2963C26.3845 54.9326 26.7588 54.6922 27.1002 54.5609C27.3865 54.4506 27.6583 54.4125 27.9551 54.4414C28.0668 54.4558 28.1443 54.5556 28.1718 54.6463C28.1994 54.7408 28.1797 54.8288 28.118 54.8813C27.8356 55.1164 27.5047 55.2582 27.1055 55.3186C26.9623 55.341 26.8113 55.3515 26.6484 55.3515ZM25.9603 55.2963C26.6235 55.3856 27.4666 55.4198 28.1154 54.88C28.1758 54.8288 28.1955 54.7421 28.1679 54.6476C28.1416 54.557 28.0641 54.4585 27.9538 54.444C27.4929 54.3994 26.9321 54.4703 25.9603 55.2963Z" fill="#11519C"/>
<path fill-rule="evenodd" clip-rule="evenodd" d="M25.7619 54.6999C25.9181 54.5962 25.8446 54.2955 25.6529 54.2456C25.142 54.1326 24.5602 54.1996 23.5687 54.8575C24.337 55.0572 25.1026 55.1268 25.7619 54.6999Z" fill="#11519C"/>
<path d="M24.6259 55.0165C24.3186 55.0165 23.9797 54.9653 23.5687 54.859L23.5661 54.8576L23.5687 54.8563C24.0362 54.5464 24.4354 54.352 24.7913 54.2614C25.0881 54.1853 25.3626 54.18 25.6542 54.2444C25.7645 54.2719 25.8288 54.3796 25.8446 54.4742C25.8616 54.5714 25.8301 54.6567 25.7632 54.7014C25.4558 54.901 25.1105 55.0034 24.706 55.0152C24.6797 55.0166 24.6534 55.0165 24.6259 55.0165ZM23.5726 54.8563C24.2201 55.0244 25.0527 55.1571 25.7618 54.6987C25.8275 54.6541 25.8577 54.5714 25.8419 54.4742C25.8262 54.3809 25.7618 54.2746 25.6528 54.247C25.2011 54.1472 24.6351 54.1524 23.5726 54.8563Z" fill="#11519C"/>
<path fill-rule="evenodd" clip-rule="evenodd" d="M23.6394 54.0817C23.8207 53.9609 23.7353 53.6129 23.5134 53.5564C22.9211 53.4251 22.2487 53.5026 21.1009 54.2643C21.9887 54.4941 22.8751 54.5755 23.6394 54.0817Z" fill="#11519C"/>
<path d="M22.3238 54.4468C21.9679 54.4468 21.5765 54.3877 21.0998 54.2642L21.0972 54.2629L21.0998 54.2616C21.6409 53.9031 22.1032 53.6772 22.5155 53.5722C22.8596 53.4842 23.1774 53.4789 23.5136 53.5525C23.641 53.5853 23.7158 53.7087 23.7342 53.8177C23.7539 53.9307 23.7185 54.0292 23.641 54.0804C23.2851 54.3115 22.8845 54.4297 22.4183 54.4442C22.3855 54.4468 22.3553 54.4468 22.3238 54.4468ZM21.1038 54.2629C21.8536 54.4573 22.8189 54.6109 23.6384 54.0804C23.7158 54.0292 23.75 53.932 23.7303 53.8204C23.7119 53.7127 23.637 53.5892 23.5123 53.5577C22.9883 53.4408 22.3343 53.4474 21.1038 54.2629Z" fill="#11519C"/>
<path fill-rule="evenodd" clip-rule="evenodd" d="M28.0235 54.2223C28.2428 54.2328 28.3807 53.898 28.2336 53.7193C27.8292 53.2597 27.2369 52.9222 25.8488 52.8578C26.4345 53.5762 27.1082 54.1711 28.0235 54.2223Z" fill="#11519C"/>
<path d="M28.0326 54.2248C28.03 54.2248 28.0261 54.2248 28.0235 54.2248C27.5966 54.1999 27.2 54.0594 26.8113 53.7915C26.4948 53.5748 26.1888 53.278 25.8474 52.8604L25.8448 52.8577H25.8474C26.5014 52.8879 27.0122 52.9799 27.4088 53.1401C27.7411 53.274 28.0024 53.4579 28.2323 53.7192C28.3163 53.8217 28.3032 53.9674 28.2533 54.0672C28.206 54.1657 28.1233 54.2248 28.0326 54.2248ZM28.0235 54.2209C28.0261 54.2209 28.03 54.2209 28.0326 54.2209C28.1219 54.2209 28.2034 54.1631 28.2533 54.0646C28.3032 53.9661 28.315 53.8217 28.2323 53.7205C27.8751 53.3147 27.3392 52.9286 25.8513 52.8604C26.3464 53.4645 27.0398 54.1657 28.0235 54.2209Z" fill="#11519C"/>
<path fill-rule="evenodd" clip-rule="evenodd" d="M25.5135 53.9528C25.7197 53.9896 25.8917 53.6915 25.7762 53.5037C25.4518 53.0178 24.9344 52.6225 23.629 52.3861C24.0913 53.1399 24.6533 53.7874 25.5135 53.9528Z" fill="#11519C"/>
<path d="M25.5491 53.9582C25.5373 53.9582 25.5254 53.9569 25.5136 53.9556C25.1118 53.8781 24.7546 53.6943 24.4223 53.3922C24.1505 53.1466 23.8983 52.8275 23.6278 52.3889L23.6265 52.3863H23.6291C24.2437 52.4979 24.7152 52.6502 25.0711 52.8512C25.3692 53.0193 25.5924 53.2267 25.7776 53.5038C25.8446 53.6115 25.813 53.7481 25.7539 53.8361C25.7001 53.9136 25.6252 53.9582 25.5491 53.9582ZM25.5136 53.9517C25.6003 53.9674 25.6896 53.9228 25.7513 53.8335C25.8104 53.7468 25.8406 53.6115 25.775 53.5052C25.4887 53.0757 25.0303 52.6437 23.6317 52.3889C24.0218 53.0232 24.5891 53.7744 25.5136 53.9517Z" fill="#11519C"/>
<path fill-rule="evenodd" clip-rule="evenodd" d="M23.314 53.2856C23.5071 53.2988 23.6371 53.0059 23.511 52.8444C23.163 52.4294 22.6456 52.1168 21.419 52.0302C21.9207 52.6789 22.5038 53.22 23.314 53.2856Z" fill="#11519C"/>
<path d="M23.3272 53.2884C23.3232 53.2884 23.318 53.2884 23.314 53.2884C22.9358 53.2582 22.5878 53.1243 22.2503 52.8787C21.9758 52.6791 21.7106 52.4112 21.4177 52.0329L21.4164 52.0303H21.419C21.9968 52.071 22.4473 52.1643 22.7953 52.314C23.0868 52.44 23.314 52.6081 23.5123 52.8445C23.5846 52.9365 23.5701 53.0652 23.5242 53.1531C23.4782 53.2385 23.4047 53.2884 23.3272 53.2884ZM23.314 53.2845C23.3968 53.2897 23.4729 53.2398 23.5215 53.1518C23.5675 53.0652 23.5819 52.9378 23.5097 52.8472C23.2024 52.4794 22.7362 52.1275 21.4216 52.0342C21.8458 52.5793 22.4447 53.2136 23.314 53.2845Z" fill="#11519C"/>
<path fill-rule="evenodd" clip-rule="evenodd" d="M21.3824 53.1873C21.5754 53.2004 21.7055 52.9076 21.5794 52.746C21.2314 52.3311 20.7139 52.0185 19.4874 51.9318C19.989 52.5793 20.5721 53.1203 21.3824 53.1873Z" fill="#11519C"/>
<path d="M21.3954 53.1886C21.3915 53.1886 21.3862 53.1886 21.3823 53.1886C21.0041 53.1584 20.656 53.0245 20.3185 52.7789C20.0441 52.5793 19.7788 52.3114 19.4859 51.9331L19.4846 51.9305H19.4872C20.0651 51.9712 20.5155 52.0645 20.8635 52.2142C21.1551 52.3402 21.3823 52.5083 21.5806 52.7447C21.6528 52.8367 21.6384 52.9654 21.5924 53.0533C21.5464 53.1387 21.4729 53.1886 21.3954 53.1886ZM21.3823 53.1847C21.4637 53.1899 21.5412 53.14 21.5885 53.052C21.6344 52.9654 21.6489 52.838 21.5766 52.7474C21.2693 52.3796 20.8031 52.0277 19.4886 51.9345C19.9141 52.4795 20.5129 53.1138 21.3823 53.1847Z" fill="#11519C"/>
<path fill-rule="evenodd" clip-rule="evenodd" d="M42.0962 53.3262L45.6617 52.7274L42.0962 53.3262Z" fill="#11519C"/>
<path d="M45.6544 52.6607L42.0889 53.2601L42.1114 53.3935L45.6769 52.7941L45.6544 52.6607Z" fill="#11519C"/>
<path d="M51.5211 49.804L44.9771 51.4255L45.009 51.5543L51.553 49.9328L51.5211 49.804Z" fill="#11519C"/>
<path d="M53.165 47.107L46.98 50.1863L47.014 50.2545L53.199 47.1752L53.165 47.107Z" fill="#11519C"/>
<path d="M54.6234 44.488L48.8972 48.3367L48.9404 48.401L54.6666 44.5523L54.6234 44.488Z" fill="#11519C"/>
<path d="M54.8224 42.1433L50.1143 46.433L50.1567 46.4796L54.8649 42.1899L54.8224 42.1433Z" fill="#11519C"/>
<path d="M54.8752 40.1666L50.8943 44.3242L50.937 44.3651L54.9179 40.2075L54.8752 40.1666Z" fill="#11519C"/>
<path d="M53.9483 38.4854L51.5884 41.9784L51.608 41.9917L53.9679 38.4986L53.9483 38.4854Z" fill="#11519C"/>
<path d="M50.8171 40.629L49.6014 43.2356L49.6229 43.2456L50.8386 40.639L50.8171 40.629Z" fill="#11519C"/>
<path d="M49.7721 41.2415L48.821 43.4829L48.8428 43.4921L49.7938 41.2507L49.7721 41.2415Z" fill="#11519C"/>
<path d="M48.451 41.8577L47.4102 44.9049L47.4326 44.9126L48.4733 41.8654L48.451 41.8577Z" fill="#11519C"/>
<path d="M47.3644 42.834L45.9875 46.8198L46.0099 46.8275L47.3867 42.8417L47.3644 42.834Z" fill="#11519C"/>
<path d="M46.5509 42.9061L44.3576 48.2746L44.3795 48.2835L46.5728 42.915L46.5509 42.9061Z" fill="#11519C"/>
<path d="M45.9943 42.8075L42.5304 49.6342L42.5515 49.6449L46.0154 42.8182L45.9943 42.8075Z" fill="#11519C"/>
<path d="M40.8827 51.1357L40.863 51.1225C42.4599 48.6785 43.8493 46.1203 45.1114 43.3008L45.1324 43.3099C43.8703 46.1308 42.4809 48.6904 40.8827 51.1357Z" fill="#11519C"/>
<path d="M37.6917 51.6927L37.6772 51.6743C39.4357 50.3374 40.9367 48.7155 42.4023 46.5697L42.422 46.5828C40.9551 48.73 39.4514 50.3532 37.6917 51.6927Z" fill="#11519C"/>
<path fill-rule="evenodd" clip-rule="evenodd" d="M47.7788 48.2398C47.549 48.2765 47.3598 47.9548 47.4912 47.7565C47.8576 47.2456 48.4393 46.8333 49.8957 46.6048C49.3718 47.398 48.7388 48.0782 47.7788 48.2398Z" fill="#11519C"/>
<path d="M47.7447 48.2439C47.6541 48.2439 47.5661 48.1901 47.507 48.0981C47.4348 47.9852 47.4282 47.8499 47.4912 47.754C47.7001 47.4625 47.9522 47.2458 48.2858 47.0712C48.6837 46.8623 49.2116 46.7087 49.8971 46.6023H49.8998L49.8985 46.6049C49.5925 47.0672 49.3088 47.4034 49.0028 47.6595C48.6285 47.9747 48.228 48.1651 47.7802 48.24C47.7683 48.2426 47.7565 48.2439 47.7447 48.2439ZM49.8932 46.6063C48.3317 46.8505 47.8169 47.3036 47.4926 47.7567C47.4295 47.8512 47.4361 47.9852 47.5083 48.0968C47.574 48.1992 47.6777 48.2544 47.7789 48.2386C48.8111 48.0653 49.4506 47.276 49.8932 46.6063Z" fill="#11519C"/>
<path fill-rule="evenodd" clip-rule="evenodd" d="M48.9936 46.5697C48.7861 46.6472 48.5418 46.3806 48.6232 46.1705C48.8609 45.6215 49.3219 45.1264 50.6417 44.6392C50.3147 45.481 49.8616 46.2387 48.9936 46.5697Z" fill="#11519C"/>
<path d="M48.9174 46.5842C48.8452 46.5842 48.769 46.55 48.7073 46.487C48.6167 46.3951 48.5826 46.2703 48.6219 46.1692C48.7572 45.8566 48.9489 45.6058 49.226 45.3799C49.557 45.1094 50.0193 44.8664 50.6417 44.6366L50.6444 44.6353L50.6431 44.6379C50.4513 45.1291 50.2543 45.4968 50.0206 45.7962C49.7343 46.1626 49.3981 46.4161 48.9936 46.571L48.9923 46.5723C48.9687 46.5802 48.9437 46.5842 48.9174 46.5842ZM50.6404 44.6405C49.226 45.1632 48.836 45.6846 48.6259 46.1705C48.5865 46.2703 48.6206 46.3937 48.7099 46.4857C48.794 46.571 48.9017 46.6025 48.9936 46.5684H48.9949C49.926 46.2112 50.3633 45.351 50.6404 44.6405Z" fill="#11519C"/>
<path fill-rule="evenodd" clip-rule="evenodd" d="M49.6089 44.8308C49.383 44.9424 49.0849 44.6535 49.1571 44.3974C49.3712 43.729 49.8413 43.1012 51.2728 42.3973C50.9839 43.4203 50.5479 44.3554 49.6089 44.8308Z" fill="#11519C"/>
<path d="M49.5016 44.8575C49.432 44.8575 49.3598 44.8286 49.2928 44.7747C49.1943 44.6933 49.1142 44.5449 49.1549 44.3978C49.277 44.017 49.4675 43.7031 49.7564 43.4103C50.1005 43.0596 50.5969 42.7287 51.2706 42.3964L51.2732 42.3951L51.2719 42.3977C51.1038 42.994 50.9173 43.4457 50.6849 43.82C50.5483 44.0393 50.3933 44.2324 50.2239 44.3952C50.0414 44.5712 49.8339 44.7183 49.608 44.8325C49.5752 44.8496 49.5397 44.8575 49.5016 44.8575ZM51.2706 42.4017C49.7354 43.1568 49.348 43.8082 49.1589 44.3991C49.1181 44.5449 49.1982 44.692 49.2954 44.7721C49.3952 44.8548 49.5121 44.8772 49.608 44.8299C50.6192 44.319 51.0276 43.2645 51.2706 42.4017Z" fill="#11519C"/>
<path fill-rule="evenodd" clip-rule="evenodd" d="M48.1858 46.4792C48.0387 46.6526 47.688 46.5213 47.6565 46.2836C47.5935 45.6532 47.7563 44.9637 48.6888 43.8672C48.8188 44.8166 48.7938 45.7477 48.1858 46.4792Z" fill="#11519C"/>
<path d="M48.0019 46.5607C47.9704 46.5607 47.9376 46.5555 47.9047 46.5463C47.7944 46.5134 47.6736 46.4202 47.6552 46.2836C47.6198 45.9251 47.6644 45.5955 47.7984 45.2501C47.9573 44.8364 48.2488 44.3833 48.6875 43.8659L48.6901 43.8633V43.8659C48.7662 44.4201 48.7741 44.8614 48.715 45.254C48.6428 45.7373 48.4708 46.1378 48.1871 46.4793C48.1424 46.5331 48.0768 46.5607 48.0019 46.5607ZM48.6875 43.8698C47.6881 45.0465 47.6027 45.7255 47.6579 46.2836C47.6762 46.4189 47.7957 46.5108 47.9047 46.5436C48.0177 46.5765 48.1228 46.5528 48.1845 46.4793C48.8385 45.6913 48.7965 44.6722 48.6875 43.8698Z" fill="#11519C"/>
<path fill-rule="evenodd" clip-rule="evenodd" d="M46.7886 48.1218C46.627 48.3056 46.2291 48.1704 46.1871 47.9209C46.1004 47.259 46.2672 46.5327 47.2889 45.3692C47.4583 46.3686 47.4544 47.3457 46.7886 48.1218Z" fill="#11519C"/>
<path d="M46.5784 48.2085C46.5416 48.2085 46.5035 48.2032 46.4641 48.1914C46.3958 48.1717 46.3315 48.1362 46.2829 48.0916C46.2304 48.043 46.1962 47.9839 46.1857 47.9209C46.1371 47.544 46.1792 47.1986 46.321 46.8322C46.4904 46.3949 46.8069 45.9155 47.2875 45.3679L47.2889 45.3653V45.3679C47.3887 45.9497 47.4084 46.4132 47.3519 46.8269C47.3191 47.0699 47.2587 47.2971 47.1707 47.5033C47.0761 47.7265 46.9474 47.934 46.7872 48.1205C46.7399 48.1796 46.6637 48.2085 46.5784 48.2085ZM47.2875 45.3731C46.1923 46.6207 46.1109 47.3352 46.1883 47.9209C46.2094 48.0417 46.317 48.1467 46.4654 48.1888C46.5955 48.2255 46.7189 48.1993 46.7885 48.1205C47.5029 47.2879 47.4307 46.2149 47.2875 45.3731Z" fill="#11519C"/>
<path fill-rule="evenodd" clip-rule="evenodd" d="M46.0463 49.8315C45.8073 49.8092 45.7153 49.3863 45.9058 49.1946C46.4245 48.7087 47.1297 48.3974 48.6492 48.5406C47.8875 49.3062 47.0522 49.9129 46.0463 49.8315Z" fill="#11519C"/>
<path d="M46.2263 49.8397C46.1672 49.8397 46.1068 49.8371 46.0477 49.8331H46.0464C45.9519 49.8239 45.8731 49.7517 45.8311 49.6348C45.7838 49.5048 45.7877 49.3118 45.9059 49.1936C46.2014 48.9165 46.5179 48.7379 46.9027 48.6302C47.3623 48.5015 47.9336 48.4713 48.6506 48.5396H48.6532L48.6506 48.5422C48.2054 48.99 47.8206 49.296 47.4398 49.5061C47.2165 49.6296 46.9907 49.7202 46.77 49.774C46.5914 49.8174 46.4089 49.8397 46.2263 49.8397ZM46.0451 49.8305C46.1055 49.8358 46.1646 49.8384 46.2237 49.8384C47.2231 49.8384 48.0386 49.1529 48.6454 48.5422C47.0156 48.3885 46.3655 48.7655 45.9059 49.1962C45.789 49.3131 45.7851 49.5061 45.8311 49.6348C45.8744 49.7491 45.9519 49.82 46.0451 49.8305Z" fill="#11519C"/>
<path fill-rule="evenodd" clip-rule="evenodd" d="M44.1791 51.1919C43.948 51.1446 43.8928 50.7585 44.0937 50.6114C44.6374 50.2398 45.3466 50.0441 46.8122 50.3462C46.0098 50.9397 45.1496 51.381 44.1791 51.1919Z" fill="#11519C"/>
<path d="M44.6361 51.2382C44.4837 51.2382 44.3314 51.2237 44.1791 51.1935C44.0806 51.1725 44.0044 51.0884 43.9781 50.9676C43.9519 50.8507 43.9781 50.6945 44.0924 50.6104C44.4023 50.399 44.7241 50.2768 45.1062 50.2256C45.5632 50.1639 46.1214 50.2033 46.8108 50.3465H46.8135L46.8108 50.3478C46.3433 50.6931 45.9441 50.9203 45.5567 51.0635C45.2428 51.1804 44.9381 51.2382 44.6361 51.2382ZM44.1791 51.1909C45.2218 51.3931 46.1319 50.8468 46.8082 50.3478C46.3 50.2427 45.8876 50.1994 45.5449 50.1994C44.8278 50.1994 44.4207 50.3898 44.095 50.613C43.9821 50.6971 43.9558 50.8507 43.9821 50.9676C44.007 51.0871 44.0806 51.1712 44.1791 51.1909Z" fill="#11519C"/>
<path fill-rule="evenodd" clip-rule="evenodd" d="M45.0535 49.8713C44.8802 50.0355 44.5177 49.8661 44.5046 49.6179C44.4967 48.9626 44.7344 48.2705 45.8336 47.2304C45.8861 48.2219 45.7732 49.1766 45.0535 49.8713Z" fill="#11519C"/>
<path d="M44.879 49.9384C44.8343 49.9384 44.787 49.9292 44.7398 49.9095C44.6767 49.8846 44.6203 49.8439 44.5782 49.7953C44.5336 49.7428 44.5073 49.681 44.5047 49.6193C44.4994 49.2463 44.5796 48.9128 44.7542 48.5687C44.963 48.1577 45.3163 47.7203 45.835 47.2305L45.8377 47.2279V47.2305C45.8679 47.8083 45.835 48.2627 45.7352 48.6619C45.6131 49.1518 45.3911 49.5471 45.0563 49.8715C45.0103 49.9161 44.9473 49.9384 44.879 49.9384ZM45.8337 47.2344C44.6544 48.3494 44.4994 49.0389 44.5073 49.618C44.5139 49.7388 44.6045 49.8518 44.7411 49.9056C44.8606 49.9529 44.9801 49.9397 45.0536 49.8688C45.8258 49.1242 45.8771 48.071 45.8337 47.2344Z" fill="#11519C"/>
<path fill-rule="evenodd" clip-rule="evenodd" d="M43.2181 51.1898C43.0329 51.3264 42.7019 51.1294 42.7177 50.8956C42.7821 50.2784 43.0867 49.652 44.2608 48.7878C44.1991 49.7242 43.985 50.6106 43.2181 51.1898Z" fill="#11519C"/>
<path d="M43.0734 51.2354C43.0183 51.2354 42.9592 51.2197 42.9027 51.1881C42.7819 51.1212 42.7083 51.0069 42.7149 50.894C42.7517 50.5433 42.8646 50.2373 43.0708 49.9314C43.3177 49.5663 43.7051 49.192 44.258 48.7849L44.2606 48.7836V48.7862C44.2252 49.3325 44.1437 49.7567 44.0045 50.1218C43.8338 50.5696 43.5764 50.9189 43.2179 51.1895C43.1772 51.2197 43.1273 51.2354 43.0734 51.2354ZM44.258 48.7901C43.0012 49.7173 42.7753 50.349 42.7189 50.8953C42.711 51.0056 42.7845 51.1199 42.904 51.1868C43.0156 51.2486 43.1352 51.2486 43.2166 51.1895C44.0413 50.5657 44.2068 49.5807 44.258 48.7901Z" fill="#11519C"/>
<path fill-rule="evenodd" clip-rule="evenodd" d="M42.1234 52.8485C41.7163 52.813 41.7229 52.3022 41.8975 52.1327C42.4504 51.6547 43.3946 51.3474 44.788 51.5247C44.1038 52.2588 43.1057 52.9785 42.1234 52.8485Z" fill="#11519C"/>
<path d="M42.3589 52.8656C42.2788 52.8656 42.2 52.8603 42.1225 52.8498C41.9702 52.8367 41.8586 52.7527 41.8087 52.6134C41.7509 52.4506 41.7903 52.2352 41.8953 52.1328C42.1935 51.8754 42.573 51.6902 43.0261 51.5825C43.5382 51.4604 44.1305 51.4407 44.7871 51.5248H44.7898L44.7885 51.5274C44.5179 51.8176 44.0872 52.2234 43.5671 52.5123C43.1469 52.7461 42.7424 52.8656 42.3589 52.8656ZM44.032 51.4775C43.1403 51.4775 42.3983 51.7034 41.898 52.1341C41.7929 52.2352 41.7548 52.4493 41.8126 52.6121C41.8612 52.75 41.9715 52.8341 42.1239 52.8472C42.2027 52.8577 42.2801 52.863 42.3576 52.863C43.4174 52.863 44.3945 51.9463 44.7858 51.5274C44.5245 51.4932 44.2737 51.4775 44.032 51.4775Z" fill="#11519C"/>
<path fill-rule="evenodd" clip-rule="evenodd" d="M41.5358 52.4152C41.3822 52.5465 41.0932 52.381 41.0998 52.1683C41.1353 51.6062 41.3756 51.0257 42.3487 50.1971C42.3264 51.0494 42.1714 51.861 41.5358 52.4152Z" fill="#11519C"/>
<path d="M41.4029 52.4634C41.3622 52.4634 41.3202 52.4529 41.2782 52.4332C41.1863 52.3886 41.0943 52.2901 41.0983 52.1679C41.118 51.8475 41.2046 51.5664 41.3714 51.2815C41.5697 50.9413 41.8888 50.5854 42.3485 50.1954L42.3511 50.1928V50.1954C42.338 50.6918 42.2828 51.0805 42.1751 51.4167C42.0438 51.8291 41.835 52.1561 41.5382 52.4148L41.5356 52.4174C41.4975 52.4476 41.4515 52.4634 41.4029 52.4634ZM42.3459 50.2007C41.3031 51.0897 41.1311 51.6715 41.0996 52.1692C41.0956 52.2887 41.1863 52.3872 41.2782 52.4306C41.3727 52.4765 41.4686 52.47 41.5343 52.4135L41.5356 52.4122C42.2185 51.8186 42.3275 50.919 42.3459 50.2007Z" fill="#11519C"/>
<path fill-rule="evenodd" clip-rule="evenodd" d="M28.5564 55.9961C31.5611 55.7046 34.5409 55.5601 37.7072 54.3309C38.1852 54.105 38.7657 54.0407 39.4446 54.1391C40.1801 54.214 41.0363 53.7754 41.8965 53.321C41.3252 53.0478 40.6752 52.8364 39.0809 53.7045C38.8103 53.8424 38.5503 53.5193 39.0231 53.384C40.2431 53.0229 40.5517 52.3137 40.7316 51.5547C39.2253 51.9394 38.6895 53.145 38.0867 53.5889C35.0281 55.283 30.7627 55.4669 28.5314 55.6652C28.3397 55.6757 28.3594 56.0079 28.5564 55.9961Z" fill="#11519C"/>
<path d="M28.5461 55.9976C28.4976 55.9976 28.4555 55.9753 28.4279 55.9346C28.3912 55.8794 28.3859 55.7993 28.4161 55.7402C28.4398 55.6943 28.4805 55.6667 28.533 55.6641C28.755 55.6444 28.9992 55.6247 29.2579 55.6036C31.5312 55.4198 35.3357 55.1125 38.0883 53.5878C38.2695 53.4538 38.4429 53.2542 38.6438 53.0218C38.8723 52.7565 39.1323 52.4571 39.4659 52.1892C39.8507 51.8806 40.2657 51.6718 40.7332 51.5536H40.7358V51.5562C40.6557 51.8937 40.5375 52.285 40.2709 52.6212C39.9925 52.9706 39.5854 53.2214 39.0259 53.3869C38.8211 53.446 38.7751 53.5313 38.7672 53.5773C38.7594 53.6219 38.7777 53.6666 38.8211 53.6981C38.8723 53.7362 38.9721 53.7611 39.0837 53.7047C39.806 53.3107 40.3917 53.1085 40.8763 53.0848C41.3189 53.0625 41.6249 53.1899 41.9007 53.3212L41.9033 53.3225L41.9007 53.3238C41.4437 53.5655 41.0326 53.7782 40.6281 53.9319C40.1659 54.1078 39.7798 54.1761 39.4475 54.142C38.7712 54.0448 38.1868 54.1092 37.7101 54.3337C37.039 54.5937 36.3627 54.8131 35.643 55.0022C35.0008 55.1703 34.3376 55.3121 33.6166 55.4329C32.2758 55.6588 30.931 55.7809 29.6309 55.9004C29.2789 55.932 28.9165 55.9661 28.5593 56.0003C28.5527 55.9976 28.5501 55.9976 28.5461 55.9976ZM40.7306 51.5562C39.68 51.8254 39.1061 52.4899 38.6451 53.0231C38.4442 53.2555 38.2708 53.4552 38.0896 53.5891C37.4448 53.9463 36.7015 54.2589 35.8781 54.5215C35.1676 54.7474 34.3757 54.9405 33.5208 55.098C31.9501 55.3883 30.4582 55.5078 29.2579 55.605C28.9992 55.626 28.755 55.6457 28.533 55.6654C28.4818 55.668 28.4411 55.6943 28.4188 55.7402C28.3899 55.798 28.3938 55.8768 28.4306 55.932C28.4595 55.9753 28.5041 55.9976 28.5566 55.9937C28.9139 55.9595 29.2776 55.9254 29.6296 55.8939C32.2298 55.6562 34.9181 55.4119 37.7088 54.3285C37.9465 54.2155 38.2144 54.1433 38.502 54.1105C38.7909 54.079 39.1087 54.0868 39.4462 54.1354C40.2039 54.2129 41.1022 53.7388 41.8954 53.3186C41.3031 53.0362 40.6413 52.855 39.0837 53.7034C38.9708 53.7611 38.871 53.7349 38.8185 53.6968C38.7751 53.6653 38.7554 53.6193 38.7646 53.5733C38.7738 53.5274 38.8185 53.4407 39.0259 53.3816C40.288 53.0086 40.5677 52.2443 40.7306 51.5562Z" fill="#11519C"/>
<path fill-rule="evenodd" clip-rule="evenodd" d="M28.8006 54.8813C28.6575 54.7592 28.7665 54.4703 28.9635 54.444C29.4848 54.3928 30.0535 54.528 30.9596 55.2989C30.173 55.404 29.4047 55.383 28.8006 54.8813Z" fill="#11519C"/>
<path d="M30.2676 55.3515C30.1048 55.3515 29.9538 55.341 29.8106 55.32C29.4114 55.2609 29.0805 55.1177 28.7981 54.8826C28.7364 54.8301 28.7167 54.7421 28.7443 54.6476C28.7718 54.5556 28.848 54.4571 28.9609 54.4427C29.2577 54.4138 29.5296 54.4506 29.8159 54.5622C30.1586 54.6935 30.5316 54.9352 30.9584 55.2976L30.961 55.3003H30.9584C30.7023 55.3344 30.4751 55.3515 30.2676 55.3515ZM28.8007 54.88C29.4495 55.4198 30.2926 55.3869 30.9558 55.2963C29.984 54.4703 29.4232 54.3994 28.9623 54.444C28.8519 54.4585 28.7745 54.557 28.7482 54.6476C28.7206 54.7408 28.7403 54.8288 28.8007 54.88Z" fill="#11519C"/>
<path fill-rule="evenodd" clip-rule="evenodd" d="M31.1542 54.6999C30.9979 54.5962 31.0714 54.2955 31.2632 54.2456C31.774 54.1326 32.3558 54.1996 33.3473 54.8575C32.5791 55.0572 31.8134 55.1268 31.1542 54.6999Z" fill="#11519C"/>
<path d="M32.2901 55.0165C32.2625 55.0165 32.2363 55.0166 32.21 55.0152C31.8068 55.0034 31.4615 54.901 31.1528 54.7014C31.0859 54.6567 31.0557 54.5714 31.0714 54.4742C31.0872 54.3796 31.1528 54.2732 31.2618 54.2444C31.5534 54.18 31.8265 54.1853 32.1247 54.2614C32.4805 54.352 32.8798 54.5464 33.3473 54.8563L33.3499 54.8576L33.3473 54.859C32.9349 54.9653 32.5974 55.0165 32.2901 55.0165ZM31.1542 54.6987C31.862 55.1571 32.6959 55.0244 33.3434 54.8563C32.2809 54.1524 31.7149 54.1472 31.2632 54.247C31.1542 54.2746 31.0898 54.3809 31.074 54.4742C31.0583 54.5714 31.0885 54.6554 31.1542 54.6987Z" fill="#11519C"/>
<path fill-rule="evenodd" clip-rule="evenodd" d="M33.2765 54.0811C33.0952 53.9603 33.1806 53.6123 33.4025 53.5558C33.9948 53.4245 34.6672 53.502 35.815 54.2637C34.9272 54.4935 34.0408 54.5749 33.2765 54.0811Z" fill="#11519C"/>
<path d="M34.5924 54.4466C34.5609 54.4466 34.5294 54.4466 34.4992 54.4453C34.0316 54.4321 33.6324 54.3126 33.2765 54.0815C33.199 54.0303 33.1636 53.9318 33.1833 53.8188C33.2017 53.7098 33.2765 53.5864 33.4039 53.5536C33.7414 53.4787 34.0579 53.4853 34.402 53.5733C34.813 53.6783 35.2766 53.9029 35.8177 54.2627L35.8203 54.264L35.8177 54.2654C35.3396 54.3888 34.9483 54.4466 34.5924 54.4466ZM33.2778 54.0802C34.0986 54.6121 35.0625 54.4571 35.8124 54.2627C34.5819 53.4472 33.9279 53.4406 33.4039 53.5562C33.2778 53.5877 33.203 53.7112 33.1859 53.8188C33.1662 53.9318 33.2017 54.029 33.2778 54.0802Z" fill="#11519C"/>
<path fill-rule="evenodd" clip-rule="evenodd" d="M28.893 54.2223C28.6737 54.2328 28.5358 53.898 28.6829 53.7193C29.0874 53.2597 29.6797 52.9222 31.0678 52.8578C30.4821 53.5762 29.8084 54.1711 28.893 54.2223Z" fill="#11519C"/>
<path d="M28.8836 54.2248C28.793 54.2248 28.7102 54.167 28.6603 54.0672C28.6104 53.9674 28.5973 53.8217 28.6814 53.7192C28.9112 53.4579 29.1725 53.274 29.5048 53.1401C29.9014 52.9799 30.4122 52.8879 31.0662 52.8577H31.0689L31.0662 52.8604C30.7248 53.2793 30.4188 53.5748 30.1023 53.7915C29.7136 54.058 29.3183 54.1999 28.8902 54.2248C28.8889 54.2248 28.8862 54.2248 28.8836 54.2248ZM31.0636 52.8604C29.5757 52.93 29.0399 53.3147 28.6827 53.7205C28.5999 53.8217 28.6118 53.9661 28.6617 54.0646C28.7116 54.1631 28.793 54.2209 28.8823 54.2209C28.8849 54.2209 28.8889 54.2209 28.8915 54.2209C29.8764 54.1657 30.5698 53.4645 31.0636 52.8604Z" fill="#11519C"/>
<path fill-rule="evenodd" clip-rule="evenodd" d="M31.4022 53.953C31.196 53.9897 31.0239 53.6916 31.1395 53.5038C31.4639 53.0179 31.9813 52.6226 33.2867 52.3863C32.8244 53.1401 32.2623 53.7875 31.4022 53.953Z" fill="#11519C"/>
<path d="M31.367 53.9582C31.2908 53.9582 31.216 53.9136 31.1621 53.8348C31.103 53.7468 31.0715 53.6102 31.1385 53.5038C31.3224 53.2281 31.5469 53.0206 31.845 52.8512C32.2009 52.6489 32.6724 52.4979 33.287 52.3863H33.2896L33.2883 52.3889C33.0178 52.8275 32.7656 53.1466 32.4938 53.3922C32.1602 53.6943 31.803 53.8781 31.4025 53.9556C31.3906 53.9569 31.3788 53.9582 31.367 53.9582ZM33.2844 52.3889C31.8857 52.6423 31.4274 53.0757 31.1411 53.5052C31.0755 53.6115 31.1057 53.7468 31.1648 53.8335C31.2265 53.9241 31.3145 53.9674 31.4025 53.9517C32.327 53.7744 32.8943 53.0232 33.2844 52.3889Z" fill="#11519C"/>
<path fill-rule="evenodd" clip-rule="evenodd" d="M33.6022 53.2856C33.4091 53.2988 33.2791 53.0059 33.4052 52.8444C33.7532 52.4294 34.2706 52.1168 35.4972 52.0302C34.9955 52.6789 34.4125 53.22 33.6022 53.2856Z" fill="#11519C"/>
<path d="M33.589 53.2884C33.5102 53.2884 33.438 53.2385 33.392 53.1531C33.346 53.0665 33.3316 52.9365 33.4038 52.8445C33.6021 52.6081 33.8293 52.44 34.1209 52.314C34.4689 52.1643 34.9193 52.071 35.4972 52.0303H35.4998L35.4985 52.0329C35.2056 52.4112 34.9403 52.6791 34.6659 52.8787C34.3283 53.1229 33.9803 53.2569 33.6021 53.2884C33.5982 53.2871 33.5942 53.2884 33.589 53.2884ZM35.4945 52.0329C34.1799 52.1262 33.7137 52.4794 33.4064 52.8458C33.3355 52.9365 33.35 53.0652 33.3946 53.1505C33.4419 53.2398 33.5194 53.2897 33.6021 53.2832C34.4715 53.2135 35.0703 52.5792 35.4945 52.0329Z" fill="#11519C"/>
<path fill-rule="evenodd" clip-rule="evenodd" d="M35.5341 53.1873C35.341 53.2004 35.211 52.9076 35.3371 52.746C35.6851 52.3311 36.2025 52.0185 37.4291 51.9318C36.9274 52.5793 36.3443 53.1203 35.5341 53.1873Z" fill="#11519C"/>
<path d="M35.5207 53.1886C35.442 53.1886 35.3697 53.1387 35.3238 53.0533C35.2778 52.9667 35.2633 52.8367 35.3356 52.7447C35.5339 52.5083 35.7611 52.3402 36.0526 52.2142C36.4006 52.0645 36.8511 51.9712 37.4289 51.9305H37.4315L37.4302 51.9331C37.1374 52.3114 36.8721 52.5793 36.5976 52.7789C36.2601 53.0231 35.9121 53.1571 35.5339 53.1886C35.5299 53.1886 35.526 53.1886 35.5207 53.1886ZM37.4263 51.9345C36.1117 52.0277 35.6455 52.381 35.3382 52.7474C35.2673 52.838 35.2817 52.9667 35.3264 53.052C35.3737 53.1413 35.4511 53.1912 35.5326 53.1847C36.4033 53.1151 37.0021 52.4795 37.4263 51.9345Z" fill="#11519C"/>
<path d="M12.9366 13.7815L12.8447 13.3902L28.1205 5.85471L44.1278 13.318L44.0411 13.7119L12.9366 13.7815ZM28.1258 6.31172L13.8257 13.3665L43.114 13.3009L28.1258 6.31172Z" fill="#11519C"/>
<path fill-rule="evenodd" clip-rule="evenodd" d="M37.3475 34.2134C33.8424 34.0886 30.2086 33.9402 28.4423 36.0966C26.3227 33.7353 22.5076 34.4445 19.5371 34.4012C18.4457 37.0067 17.3531 39.5176 16.2618 42.1244C20.132 43.3471 24.0021 44.6026 27.8723 46.2139C28.1652 46.2166 28.4265 46.2179 28.7194 46.2205C32.0747 44.8862 36.4545 43.4009 40.5768 42.1231C39.4841 39.5189 38.4388 36.8189 37.3475 34.2134ZM27.9327 45.1791C24.8255 43.1068 21.2574 42.4475 16.9512 41.7883C17.9204 39.4809 18.8896 37.1735 19.8575 34.8661C25.3285 34.5903 27.1421 35.2968 27.9314 36.2791C27.9327 39.2458 27.9327 42.2124 27.9327 45.1791ZM28.852 36.3645C29.661 35.3664 31.5205 34.459 37.1295 34.74C38.1223 37.0868 39.1164 39.4323 40.1093 41.7791C35.6954 42.3411 32.0353 42.9767 28.852 45.2264C28.852 42.2098 28.852 39.381 28.852 36.3645Z" fill="#11519C"/>
</g>
<defs>
<clipPath id="clip0_5662_1753">
<rect width="56" height="56" fill="white"/>
</clipPath>
</defs>
</svg>